<svg width="1280" height="400" viewBox="0 0 1280 400" fill="none" xmlns="http://www.w3.org/2000/svg">
  <defs>
    <linearGradient id="grad" x1="0" y1="0" x2="1" y2="0">
      <stop offset="0%" stop-color="#6366f1" stop-opacity="0"/>
      <stop offset="50%" stop-color="#6366f1" stop-opacity="1"/>
      <stop offset="100%" stop-color="#6366f1" stop-opacity="0"/>
    </linearGradient>
    <radialGradient id="glow1" cx="50%" cy="50%" r="50%">
      <stop offset="0%" stop-color="#6366f1" stop-opacity="0.12"/>
      <stop offset="100%" stop-color="#6366f1" stop-opacity="0"/>
    </radialGradient>
    <radialGradient id="glow2" cx="50%" cy="50%" r="50%">
      <stop offset="0%" stop-color="#818cf8" stop-opacity="0.08"/>
      <stop offset="100%" stop-color="#818cf8" stop-opacity="0"/>
    </radialGradient>
  </defs>

  <!-- Background -->
  <rect width="1280" height="400" fill="#0f1117"/>

  <!-- Grid -->
  <g opacity="0.035" stroke="#6366f1" stroke-width="1">
    <line x1="0" y1="80" x2="1280" y2="80"/>
    <line x1="0" y1="160" x2="1280" y2="160"/>
    <line x1="0" y1="240" x2="1280" y2="240"/>
    <line x1="0" y1="320" x2="1280" y2="320"/>
    <line x1="160" y1="0" x2="160" y2="400"/>
    <line x1="320" y1="0" x2="320" y2="400"/>
    <line x1="480" y1="0" x2="480" y2="400"/>
    <line x1="640" y1="0" x2="640" y2="400"/>
    <line x1="800" y1="0" x2="800" y2="400"/>
    <line x1="960" y1="0" x2="960" y2="400"/>
    <line x1="1120" y1="0" x2="1120" y2="400"/>
  </g>

  <!-- Glow blobs -->
  <ellipse cx="300" cy="200" rx="350" ry="220" fill="url(#glow1)"/>
  <ellipse cx="980" cy="200" rx="300" ry="200" fill="url(#glow2)"/>
  <ellipse cx="640" cy="400" rx="420" ry="130" fill="#6366f1" opacity="0.07"/>

  <!-- Left decorative code editor -->
  <g opacity="0.2">
    <rect x="52" y="110" width="230" height="175" rx="10" fill="#161b27" stroke="#2a3347" stroke-width="1"/>
    <circle cx="76" cy="133" r="5" fill="#ef4444"/>
    <circle cx="93" cy="133" r="5" fill="#f59e0b"/>
    <circle cx="110" cy="133" r="5" fill="#10b981"/>
    <line x1="62" y1="150" x2="272" y2="150" stroke="#2a3347" stroke-width="1"/>
    <rect x="70" y="163" width="55" height="6" rx="3" fill="#6366f1" opacity="0.9"/>
    <rect x="133" y="163" width="35" height="6" rx="3" fill="#818cf8" opacity="0.5"/>
    <rect x="70" y="179" width="28" height="6" rx="3" fill="#10b981" opacity="0.7"/>
    <rect x="106" y="179" width="65" height="6" rx="3" fill="#4a5568" opacity="0.9"/>
    <rect x="70" y="195" width="45" height="6" rx="3" fill="#6366f1" opacity="0.5"/>
    <rect x="123" y="195" width="80" height="6" rx="3" fill="#4a5568" opacity="0.6"/>
    <rect x="70" y="211" width="85" height="6" rx="3" fill="#4a5568" opacity="0.5"/>
    <rect x="70" y="227" width="40" height="6" rx="3" fill="#f59e0b" opacity="0.6"/>
    <rect x="118" y="227" width="60" height="6" rx="3" fill="#4a5568" opacity="0.4"/>
    <rect x="70" y="243" width="70" height="6" rx="3" fill="#818cf8" opacity="0.4"/>
    <rect x="70" y="259" width="50" height="6" rx="3" fill="#10b981" opacity="0.4"/>
  </g>

  <!-- Right decorative preview -->
  <g opacity="0.2">
    <rect x="998" y="95" width="230" height="210" rx="10" fill="#161b27" stroke="#2a3347" stroke-width="1"/>
    <rect x="1016" y="115" width="110" height="12" rx="3" fill="#e8eaf0" opacity="0.8"/>
    <rect x="1016" y="137" width="75" height="6" rx="3" fill="#4a5568" opacity="0.8"/>
    <rect x="1016" y="153" width="185" height="6" rx="3" fill="#4a5568" opacity="0.5"/>
    <rect x="1016" y="169" width="150" height="6" rx="3" fill="#4a5568" opacity="0.4"/>
    <!-- Callout -->
    <rect x="1016" y="186" width="195" height="46" rx="6" fill="#6366f1" opacity="0.12" stroke="#6366f1" stroke-width="1" stroke-opacity="0.3"/>
    <rect x="1024" y="197" width="90" height="6" rx="3" fill="#818cf8" opacity="0.7"/>
    <rect x="1024" y="213" width="140" height="6" rx="3" fill="#4a5568" opacity="0.5"/>
    <!-- Steps -->
    <circle cx="1024" cy="249" r="5" fill="#6366f1" opacity="0.6"/>
    <rect x="1036" y="246" width="100" height="6" rx="3" fill="#4a5568" opacity="0.6"/>
    <circle cx="1024" cy="268" r="5" fill="#6366f1" opacity="0.4"/>
    <rect x="1036" y="265" width="130" height="6" rx="3" fill="#4a5568" opacity="0.4"/>
    <circle cx="1024" cy="287" r="5" fill="#6366f1" opacity="0.3"/>
    <rect x="1036" y="284" width="80" height="6" rx="3" fill="#4a5568" opacity="0.3"/>
  </g>

  <!-- App icon -->
  <rect x="590" y="108" width="100" height="100" rx="22" fill="#161b27" stroke="#2a3347" stroke-width="1.5"/>
  <rect x="590" y="108" width="100" height="100" rx="22" fill="#6366f1" opacity="0.1"/>
  <text x="640" y="176" font-family="'Segoe UI', system-ui, sans-serif" font-size="48" font-weight="800" fill="#6366f1" text-anchor="middle">M</text>

  <!-- Title -->
  <text x="640" y="252" font-family="'Segoe UI', system-ui, -apple-system, sans-serif" font-size="60" font-weight="700" fill="#e8eaf0" text-anchor="middle" letter-spacing="-1.5">MXT Viewer</text>

  <!-- Subtitle -->
  <text x="640" y="292" font-family="'Segoe UI', system-ui, sans-serif" font-size="19" font-weight="400" fill="#8892a4" text-anchor="middle" letter-spacing="0.3">Native Windows editor for Markdown &amp; extended MDX</text>

  <!-- Badges -->
  <g transform="translate(433, 320)">
    <rect width="102" height="26" rx="13" fill="#47848F" fill-opacity="0.2" stroke="#47848F" stroke-width="1" stroke-opacity="0.4"/>
    <text x="51" y="17" font-family="'Segoe UI', system-ui, sans-serif" font-size="11" font-weight="500" fill="#7ec8cf" text-anchor="middle">Electron 33</text>
  </g>
  <g transform="translate(548, 320)">
    <rect width="90" height="26" rx="13" fill="#61DAFB" fill-opacity="0.12" stroke="#61DAFB" stroke-width="1" stroke-opacity="0.35"/>
    <text x="45" y="17" font-family="'Segoe UI', system-ui, sans-serif" font-size="11" font-weight="500" fill="#61DAFB" text-anchor="middle">React 18</text>
  </g>
  <g transform="translate(651, 320)">
    <rect width="74" height="26" rx="13" fill="#646CFF" fill-opacity="0.18" stroke="#646CFF" stroke-width="1" stroke-opacity="0.4"/>
    <text x="37" y="17" font-family="'Segoe UI', system-ui, sans-serif" font-size="11" font-weight="500" fill="#9d9fff" text-anchor="middle">Vite 6</text>
  </g>
  <g transform="translate(738, 320)">
    <rect width="112" height="26" rx="13" fill="#0078D4" fill-opacity="0.18" stroke="#0078D4" stroke-width="1" stroke-opacity="0.4"/>
    <text x="56" y="17" font-family="'Segoe UI', system-ui, sans-serif" font-size="11" font-weight="500" fill="#4db8ff" text-anchor="middle">Windows 10/11</text>
  </g>

  <!-- Bottom line -->
  <rect x="490" y="368" width="300" height="2" rx="1" fill="url(#grad)"/>
</svg>
